<svg width="314" height="150" viewBox="0 0 314 150" fill="none" xmlns="http://www.w3.org/2000/svg">
<path d="M278.5 29.7311L256 50C254 46.5 246.514 35.2311 229.514 32.2311C212.514 29.2311 203.514 35.7311 199.514 38.7311C195.514 41.7311 116.014 122.231 116.014 122.231C116.014 122.231 101.014 141.231 65.0139 139.231C29.0139 137.231 -0.736084 105.816 0.0138855 68.2311C0.73349 32.1697 32.0139 2.23109 62.5139 0.231103C93.0139 -1.76889 107.514 9.73109 113.514 14.7311C119.514 19.7311 138.014 40.2311 138.014 40.2311L115.014 61.2311L93.5139 40.2311C93.5139 40.2311 84.5139 31.2311 68.0139 31.7311C51.5139 32.2311 32.7906 48.2254 32.0139 68.2311C31.1782 89.7558 48.9863 108.488 70.5139 107.731C80.1532 107.392 86.5137 103.731 93.5139 98.7311C100.514 93.7311 176.514 17.2311 176.514 17.2311C176.514 17.2311 194.514 -1.05061 225.014 0.231103C261 1.74337 275.5 26 278.5 29.7311Z" fill="url(#paint0_linear_44_34)"/>
<path d="M176.5 77.5L153.5 100L156.5 103L202.198 144.666C205.215 147.417 209.819 147.455 212.88 144.754L313.5 56L291 31.5L213.004 102.023C209.9 104.83 205.156 104.77 202.124 101.884L176.5 77.5Z" fill="#D9D9D9"/>
<defs>
<linearGradient id="paint0_linear_44_34" x1="139.25" y1="0" x2="139.25" y2="139.379" gradientUnits="userSpaceOnUse">
<stop stop-color="#5F6AD3"/>
<stop offset="1" stop-color="#2A327C"/>
</linearGradient>
</defs>
</svg>
